<?xml version="1.0" encoding="iso-8859-1"?>
<!-- Uploaded to: SVG Repo, www.svgrepo.com, Generator: SVG Repo Mixer Tools -->
<svg fill="#000000" height="800px" width="800px" version="1.1" id="Capa_1" xmlns="http://www.w3.org/2000/svg" xmlns:xlink="http://www.w3.org/1999/xlink" 
	 viewBox="0 0 91.574 91.574" xml:space="preserve">
<g>
	<path d="M83.406,67.79c3.652-5.238,5.576-11.364,5.576-17.799c0-15.712-11.678-28.742-26.809-30.881
		C55.91,12.168,46.85,7.796,36.787,7.796c-18.855,0-34.196,15.34-34.196,34.195c0,7.094,2.134,13.847,6.184,19.612L0,78.777
		l17.176-8.772c5.76,4.049,12.514,6.182,19.612,6.182c1.279,0,2.541-0.077,3.785-0.214c4.938,3.283,10.851,5.214,17.213,5.214
		c6.437,0,12.563-1.924,17.798-5.576l15.99,8.167L83.406,67.79z M18.57,66.07l-1-0.759l-8.387,4.284l4.284-8.386l-0.758-1
		c-4.002-5.28-6.118-11.58-6.118-18.218c0-16.649,13.546-30.195,30.196-30.195c16.649,0,30.195,13.546,30.195,30.197
		c0,16.648-13.545,30.193-30.194,30.193C30.145,72.186,23.845,70.071,18.57,66.07z M75.192,70.918l-1.001,0.759
		c-4.751,3.604-10.424,5.51-16.405,5.51c-3.997,0-7.787-0.879-11.208-2.436c14.098-4.221,24.404-17.305,24.404-32.758
		c0-6.582-1.873-12.731-5.108-17.954c11.057,3.452,19.108,13.774,19.108,25.952c0,5.979-1.905,11.653-5.51,16.408l-0.759,1
		l3.677,7.196L75.192,70.918z"/>
</g>
</svg>