<svg xmlns="http://www.w3.org/2000/svg" xml:space="preserve" width="2000" height="175" data-id="lg_DDv7X4wGAVbc7leifx" data-version="1" viewBox="0 0 2000 175"><g data-padding="20"><g transform="translate(10 3.125)scale(.96429)"><rect width="455.28" height="180.8" x="541.864" y="-90.699" fill="none" rx="0" ry="0" transform="matrix(.97 0 0 .97 339.67 87.79)"/><path fill="#335a02" d="M912.75 136.06h-29.2L869.89 22.88h23.16l7.47 60.81 6.57-60.81h25.88l7.77 60.81L947 22.88h23.24l-13.81 113.18h-28.44l-8.15-64.21Zm98.22 1.21q-12.07 0-19.24-4.52-7.16-4.53-10.26-13.06-3.09-8.52-3.09-20.52V53.68q0-15.77 9.05-23.88 9.06-8.12 24.9-8.12 32.6 0 32.6 32v8.22q0 14.94-.31 20.07h-39.23v21.88q0 3.02.38 5.92.38 2.91 1.7 4.79 1.32 1.89 4.26 1.89 4.22 0 5.28-3.66t1.06-9.54V92.38h26.86v6.41q0 12.68-3.13 21.24-3.14 8.57-10.57 12.91-7.43 4.33-20.26 4.33m-5.73-83.97v15.24h12.83V53.3q0-6.11-1.51-8.79t-4.53-2.68q-3.24 0-5.02 2.56-1.77 2.57-1.77 8.91m72.73 83.96q-10.94 0-14.75-4.64t-3.81-14.22V47.86h-7.62v-20.6h7.62v-24h26.26v24h7.62v20.6h-7.62v64.2q0 2.8.91 3.93.9 1.13 3.47 1.13 1.81 0 3.24-.3v18.41q-.9.3-5.66 1.17-4.75.86-9.66.86m44.53.01q-9.43 0-14.37-4.37-4.95-4.38-6.76-12t-1.81-17.28q0-10.33 2.04-16.94 2.04-6.6 6.98-10.82 4.94-4.23 13.62-7.17l16.75-5.73V51.34q0-9.13-5.96-9.13-5.43 0-5.43 7.39v6.79h-26.26q-.08-.6-.08-1.55v-2.15q0-16.9 7.96-23.95 7.96-7.06 25.24-7.06 9.06 0 16.22 3.21 7.17 3.21 11.36 9.47t4.19 15.47v86.24h-26.86v-13.43q-1.97 7.09-6.49 10.86-4.53 3.77-10.34 3.77m10.64-20.97q3.32 0 4.53-2.79 1.2-2.79 1.2-6.04V75.93q-5.58 2.27-8.67 5.7-3.1 3.43-3.1 10.07v14.56q0 10.04 6.04 10.04m70.91 19.76h-27.46V3.26h27.46Zm37.58 0h-26.71V3.26h26.71v58.63l12.97-39.01h28l-16.98 49.2 21.58 63.98h-28.75l-16.82-53.35Z"/><path fill="#99a28e" d="M849.025 91.184c0-6.832-4.256-13.104-11.424-17.808-4.144-2.688-9.408-4.704-15.008-5.824V56.688c0-1.792-.672-3.36-2.464-3.36h-70c-1.792 0-3.696 1.68-3.696 3.36v39.2c0 1.792 1.904 2.24 3.696 2.24h2.912l-3.92 9.968c-.56 1.232-.224 3.024.896 3.92.56.448 1.344.896 2.016.896.56 0 1.12-.56 1.68-.896l21.728-13.888h3.808c1.792 4.48 4.928 7.616 9.184 10.304 6.72 4.368 15.456 7.056 24.752 7.056 2.912 0 5.936-.112 8.736-.56l14.224 7.168a3.1 3.1 0 0 0 1.456.336c.672 0 1.344-.224 1.904-.56 1.008-.672 1.456-1.792 1.344-3.024l-1.456-10.752c6.16-4.592 9.632-10.528 9.632-16.912m-74.48 1.344c-.56 0-1.232.224-1.68.56l-14 8.736 2.016-4.704a2.95 2.95 0 0 0-.336-3.024c-.672-1.008-1.68-1.568-2.688-1.568h-4.704v-32.48h63.84v6.608c-2.24-.112-2.576-.112-3.808-.112-9.296 0-18.144 2.464-24.864 6.832-7.056 4.704-10.976 10.864-10.976 17.696 0 .448 0 1.456.112 1.456Zm9.184-1.456c0-9.856 13.44-18.144 29.456-18.144 1.232 0 1.568.112 3.808.224v19.376h-33.152s-.112-.896-.112-1.456m50.4 12.768c-1.008.672-1.568 1.904-1.456 3.136l.896 6.72-9.856-4.816a3.1 3.1 0 0 0-1.456-.336c-.224 0-.448 0-.56.112-2.8.56-5.712.336-8.624.336-11.424 0-21.504-4.032-26.32-10.752h33.376c1.792 0 2.464-.56 2.464-2.24V74.16c12.32 2.576 19.6 9.296 19.6 17.024 0 4.704-2.576 9.184-8.064 12.656"/></g><path fill="transparent" stroke="transparent" d="M720 0h560v175H720z"/></g></svg>